<svg id="visual" viewBox="0 0 900 600" width="900" height="600" xmlns="http://www.w3.org/2000/svg" xmlns:xlink="http://www.w3.org/1999/xlink" version="1.1"><rect x="0" y="0" width="900" height="600" fill="#001220"></rect><path d="M0 382L21.5 381.5C43 381 86 380 128.8 381C171.7 382 214.3 385 257.2 391.2C300 397.3 343 406.7 385.8 415.8C428.7 425 471.3 434 514.2 423.2C557 412.3 600 381.7 642.8 369.5C685.7 357.3 728.3 363.7 771.2 366.5C814 369.3 857 368.7 878.5 368.3L900 368L900 601L878.5 601C857 601 814 601 771.2 601C728.3 601 685.7 601 642.8 601C600 601 557 601 514.2 601C471.3 601 428.7 601 385.8 601C343 601 300 601 257.2 601C214.3 601 171.7 601 128.8 601C86 601 43 601 21.5 601L0 601Z" fill="#fa7268"></path><path d="M0 444L21.5 446.2C43 448.3 86 452.7 128.8 451.3C171.7 450 214.3 443 257.2 444C300 445 343 454 385.8 455.2C428.7 456.3 471.3 449.7 514.2 443.5C557 437.3 600 431.7 642.8 429.8C685.7 428 728.3 430 771.2 425.5C814 421 857 410 878.5 404.5L900 399L900 601L878.5 601C857 601 814 601 771.2 601C728.3 601 685.7 601 642.8 601C600 601 557 601 514.2 601C471.3 601 428.7 601 385.8 601C343 601 300 601 257.2 601C214.3 601 171.7 601 128.8 601C86 601 43 601 21.5 601L0 601Z" fill="#ef5f67"></path><path d="M0 458L21.5 462.8C43 467.7 86 477.3 128.8 480.8C171.7 484.3 214.3 481.7 257.2 477.5C300 473.3 343 467.7 385.8 472.8C428.7 478 471.3 494 514.2 500.7C557 507.3 600 504.7 642.8 497.8C685.7 491 728.3 480 771.2 471.8C814 463.7 857 458.3 878.5 455.7L900 453L900 601L878.5 601C857 601 814 601 771.2 601C728.3 601 685.7 601 642.8 601C600 601 557 601 514.2 601C471.3 601 428.7 601 385.8 601C343 601 300 601 257.2 601C214.3 601 171.7 601 128.8 601C86 601 43 601 21.5 601L0 601Z" fill="#e34c67"></path><path d="M0 540L21.5 535.7C43 531.3 86 522.7 128.8 516.5C171.7 510.3 214.3 506.7 257.2 508C300 509.3 343 515.7 385.8 514C428.7 512.3 471.3 502.7 514.2 498.8C557 495 600 497 642.8 501.3C685.7 505.7 728.3 512.3 771.2 511.5C814 510.7 857 502.3 878.5 498.2L900 494L900 601L878.5 601C857 601 814 601 771.2 601C728.3 601 685.7 601 642.8 601C600 601 557 601 514.2 601C471.3 601 428.7 601 385.8 601C343 601 300 601 257.2 601C214.3 601 171.7 601 128.8 601C86 601 43 601 21.5 601L0 601Z" fill="#d53867"></path><path d="M0 550L21.5 550.3C43 550.7 86 551.3 128.8 547.2C171.7 543 214.3 534 257.2 534.3C300 534.7 343 544.3 385.8 550.2C428.7 556 471.3 558 514.2 555C557 552 600 544 642.8 542.8C685.7 541.7 728.3 547.3 771.2 552.7C814 558 857 563 878.5 565.5L900 568L900 601L878.5 601C857 601 814 601 771.2 601C728.3 601 685.7 601 642.8 601C600 601 557 601 514.2 601C471.3 601 428.7 601 385.8 601C343 601 300 601 257.2 601C214.3 601 171.7 601 128.8 601C86 601 43 601 21.5 601L0 601Z" fill="#c62368"></path></svg>